<?xml version="1.0" encoding="UTF-8"?>
<!DOCTYPE svg PUBLIC "-//W3C//DTD SVG 1.1//EN" "http://www.w3.org/Graphics/SVG/1.1/DTD/svg11.dtd">
<svg xmlns="http://www.w3.org/2000/svg" version="1.1" width="5000px" height="5000px" style="shape-rendering:geometricPrecision; text-rendering:geometricPrecision; image-rendering:optimizeQuality; fill-rule:evenodd; clip-rule:evenodd" xmlns:xlink="http://www.w3.org/1999/xlink">
<g><path style="opacity:0.875" fill="#2b4b84" d="M 3507.5,1841.5 C 3558,1840.33 3608.67,1840.17 3659.5,1841C 3608.83,1841.5 3558.17,1841.67 3507.5,1841.5 Z"/></g>
<g><path style="opacity:0.655" fill="#2b4a85" d="M 3836.5,1841.5 C 3837.6,1840.4 3838.93,1840.24 3840.5,1841C 3839.21,1841.49 3837.87,1841.66 3836.5,1841.5 Z"/></g>
<g><path style="opacity:0.251" fill="#2b4a84" d="M 3661.5,1840.5 C 3662.47,1840.99 3663.47,1841.49 3664.5,1842C 3662.84,1842.73 3661.84,1842.23 3661.5,1840.5 Z"/></g>
<g><path style="opacity:0.999" fill="#0248b8" d="M 1841.5,1853.5 C 2276.5,1853.5 2711.5,1853.5 3146.5,1853.5C 3146.17,2284.51 3146.5,2715.51 3147.5,3146.5C 3149.03,3154.52 3145.87,3158.86 3138,3159.5C 2708.84,3158.17 2279.67,3158.17 1850.5,3159.5C 1847.31,3159.33 1844.48,3158.33 1842,3156.5C 1840.89,3152.11 1840.39,3147.61 1840.5,3143C 1841.49,2713.17 1841.83,2283.34 1841.5,1853.5 Z"/></g>
<g><path style="opacity:1" fill="#e57819" d="M 2280.5,1900.5 C 2355.15,1901.31 2429.82,1901.81 2504.5,1902C 2505,1902.5 2505.5,1903 2506,1903.5C 2506.67,2169.17 2506.67,2434.83 2506,2700.5C 2505.63,2701.42 2505.13,2702.25 2504.5,2703C 2429.17,2703.67 2353.83,2703.67 2278.5,2703C 2277.87,2702.25 2277.37,2701.42 2277,2700.5C 2276.33,2434.83 2276.33,2169.17 2277,1903.5C 2278.15,1902.36 2279.31,1901.36 2280.5,1900.5 Z"/></g>
<g><path style="opacity:1" fill="#3467c5" d="M 2859.5,1903.5 C 2787.83,1903.5 2716.17,1903.5 2644.5,1903.5C 2644.5,2170.83 2644.5,2438.17 2644.5,2705.5C 2643.5,2438 2643.17,2170.33 2643.5,1902.5C 2715.67,1902.17 2787.67,1902.5 2859.5,1903.5 Z"/></g>
<g><path style="opacity:1" fill="#fdfefe" d="M 2859.5,1903.5 C 2864.17,1903.5 2868.83,1903.5 2873.5,1903.5C 2873.5,2171.17 2873.5,2438.83 2873.5,2706.5C 2797,2706.83 2720.66,2706.5 2644.5,2705.5C 2644.5,2438.17 2644.5,2170.83 2644.5,1903.5C 2716.17,1903.5 2787.83,1903.5 2859.5,1903.5 Z"/></g>
<g><path style="opacity:1" fill="#a2bae5" d="M 1917.5,1900.5 C 1993.83,1900.5 2070.17,1900.5 2146.5,1900.5C 2147.66,2168.16 2147.83,2435.82 2147,2703.5C 2070.57,2704.5 1994.07,2704.83 1917.5,2704.5C 1917.5,2436.5 1917.5,2168.5 1917.5,1900.5 Z"/></g>
<g><path style="opacity:1" fill="#fdfffe" d="M 1918.5,1901.5 C 1994.17,1901.5 2069.83,1901.5 2145.5,1901.5C 2145.5,2168.83 2145.5,2436.17 2145.5,2703.5C 2069.83,2703.5 1994.17,2703.5 1918.5,2703.5C 1918.5,2436.17 1918.5,2168.83 1918.5,1901.5 Z"/></g>
<g><path style="opacity:1" fill="#e57819" d="M 2775.5,2731.5 C 2877.9,2732.84 2980.23,2733.84 3082.5,2734.5C 3083.31,2735.43 3084.15,2736.43 3085,2737.5C 3085.81,2816.85 3085.65,2896.18 3084.5,2975.5C 3082.88,2978.17 3082.22,2981.17 3082.5,2984.5C 3081.5,2989.84 3080.5,2995.17 3079.5,3000.5C 3076.09,3010 3072.09,3019.33 3067.5,3028.5C 3059.96,3040.89 3050.96,3052.22 3040.5,3062.5C 3032.89,3067.98 3025.23,3073.48 3017.5,3079C 3008.9,3083.8 3000.23,3088.3 2991.5,3092.5C 2931.77,3114.41 2877.44,3105.25 2828.5,3065C 2805.95,3045.65 2789.61,3022.15 2779.5,2994.5C 2775.18,2976.27 2772.51,2957.93 2771.5,2939.5C 2771.5,2926.17 2771.5,2912.83 2771.5,2899.5C 2772.33,2893.35 2772.83,2887.01 2773,2880.5C 2773.17,2831.1 2773.67,2781.76 2774.5,2732.5C 2775.17,2732.5 2775.5,2732.17 2775.5,2731.5 Z"/></g>
<g><path style="opacity:1" fill="#41538e" d="M 2775.5,2731.5 C 2873.18,2731.33 2971.01,2731.33 3069,2731.5C 3072.83,2731.67 3076.67,2731.83 3080.5,2732C 3081.76,2732.42 3082.42,2733.25 3082.5,2734.5C 2980.23,2733.84 2877.9,2732.84 2775.5,2731.5 Z"/></g>
<g><path style="opacity:1" fill="#fdfefe" d="M 2458.5,2733.5 C 2513.17,2734.83 2567.83,2734.83 2622.5,2733.5C 2627.84,2733.33 2633.18,2733.5 2638.5,2734C 2639.67,2734.5 2640.5,2735.33 2641,2736.5C 2641.67,2816.83 2641.67,2897.17 2641,2977.5C 2637.14,3013.73 2621.3,3043.56 2593.5,3067C 2522.96,3119.32 2453.3,3118.32 2384.5,3064C 2354.36,3037.89 2336.69,3005.06 2331.5,2965.5C 2330.5,2888.57 2330.17,2811.57 2330.5,2734.5C 2346.65,2733.17 2363.15,2732.5 2380,2732.5C 2406.17,2732.7 2432.34,2733.03 2458.5,2733.5 Z"/></g>
<g><path style="opacity:1" fill="#5474b3" d="M 2622.5,2733.5 C 2567.83,2734.83 2513.17,2734.83 2458.5,2733.5C 2513.18,2733.27 2567.85,2733.27 2622.5,2733.5 Z"/></g>
<g><path style="opacity:1" fill="#4c4f90" d="M 2774.5,2732.5 C 2773.67,2781.76 2773.17,2831.1 2773,2880.5C 2772.83,2887.01 2772.33,2893.35 2771.5,2899.5C 2771.33,2844.17 2771.5,2788.83 2772,2733.5C 2772.34,2731.38 2773.18,2731.05 2774.5,2732.5 Z"/></g>
<g><path style="opacity:1" fill="#144aa6" d="M 2330.5,2734.5 C 2330.17,2811.57 2330.5,2888.57 2331.5,2965.5C 2330.17,2927.34 2329.5,2888.84 2329.5,2850C 2329.5,2811.33 2329.83,2772.83 2330.5,2734.5 Z"/></g>
<g><path style="opacity:1" fill="#4e517d" d="M 2771.5,2939.5 C 2772.51,2957.93 2775.18,2976.27 2779.5,2994.5C 2776.49,2988.99 2774.65,2982.99 2774,2976.5C 2772.23,2964.23 2771.39,2951.9 2771.5,2939.5 Z"/></g>
<g><path style="opacity:1" fill="#a47053" d="M 3084.5,2975.5 C 3084.32,2978.73 3083.66,2981.73 3082.5,2984.5C 3082.22,2981.17 3082.88,2978.17 3084.5,2975.5 Z"/></g>
<g><path style="opacity:1" fill="#3c4d8a" d="M 3079.5,3000.5 C 3077.59,3010 3074.25,3019 3069.5,3027.5C 3069.04,3028.3 3068.38,3028.63 3067.5,3028.5C 3072.09,3019.33 3076.09,3010 3079.5,3000.5 Z"/></g>
<g><path style="opacity:1" fill="#3b4d86" d="M 3040.5,3062.5 C 3026.55,3076.31 3010.22,3086.31 2991.5,3092.5C 3000.23,3088.3 3008.9,3083.8 3017.5,3079C 3025.23,3073.48 3032.89,3067.98 3040.5,3062.5 Z"/></g>
</svg>
